<svg xmlns="http://www.w3.org/2000/svg" width="166" height="38" viewBox="0 0 166 38"><path fill="#00a3e0" d="M60.6 29h1.4v3.7h4.2v-3.7h1.4v8.8h-1.4v-3.8h-4.2v3.8h-1.4v-8.8zm14.4-.2c2.6 0 4.5 2 4.5 4.6s-1.9 4.6-4.5 4.6-4.5-2-4.5-4.6c-.1-2.6 1.9-4.6 4.5-4.6zm0 7.9c1.8 0 3.1-1.4 3.1-3.3s-1.3-3.3-3.1-3.3-3.1 1.4-3.1 3.3 1.3 3.3 3.1 3.3zm7.4-7.7h2.4c1.9 0 2.9 1.1 2.9 2.6 0 1-.5 1.9-1.4 2.3l2.1 4h-1.6l-1.8-3.7h-1.2v3.6h-1.4v-8.8zm2.3 4c.9 0 1.5-.5 1.5-1.4 0-.8-.5-1.4-1.5-1.4h-.9v2.8h.9zm6.3-4h4.4v1.3h-3v2.5h2.6v1.2h-2.6v2.6h3.1v1.3h-4.5v-8.9zm14.4 8.1c-.4.3-1.4.9-2.8.9-2.7 0-4.5-2-4.5-4.6s1.9-4.6 4.5-4.6c1.2 0 2.2.5 2.7.9l-.4 1.2c-.4-.3-1.2-.8-2.2-.8-1.8 0-3.1 1.4-3.1 3.3 0 1.8 1.2 3.3 3.1 3.3 1.1 0 2-.6 2.3-.8l.4 1.2z"/><path fill="#1D2126" d="M77.31 1.63c-.01-.99-.57-1.61-1.61-1.61h-6.98c-3.75 0-5.37 1.6-5.37 5.37v7.52c0 1.48-.66 2.15-2.19 2.15h-9.08c-.97 0-1.61.62-1.61 1.62 0 .96.62 1.6 1.59 1.6h9.1c3.73 0 5.41-1.61 5.41-5.37v-7.52c0-1.6.58-2.15 2.15-2.15h6.98c1.04.01 1.6-.62 1.61-1.61zm-55.84-1.61h-16.11c-3.21.01-5.36 2.15-5.36 5.37v7.52c0 3.22 2.15 5.37 5.37 5.36h12.88c1.07 0 2.15-1.07 2.15-2.14v-3.76c0-.93-.69-1.61-1.57-1.61-1 0-1.64.63-1.64 1.61v2.68h-11.82c-1.07 0-2.15-1.07-2.15-2.15v-7.51c0-1.07 1.07-2.15 2.15-2.15h16.11c1.08 0 2.15 1.07 2.15 2.15v11.27c0 .85.64 1.61 1.61 1.61.91 0 1.61-.51 1.61-1.61v-11.27c-.01-3.22-2.15-5.36-5.38-5.37zm59.06 12.89c0 3.76 1.58 5.37 5.37 5.37h19.86c.97 0 1.61-.62 1.61-1.62 0-.96-.62-1.6-1.59-1.6h-19.88c-1.61-.03-2.15-.58-2.15-2.15v-7.52c0-1.61.58-2.15 2.15-2.15h16.1c1.52 0 2.15.56 2.15 2.15 0 1.61-.56 2.15-2.15 2.15h-13.41c-1.08 0-1.61.54-1.61 1.61 0 1.03.55 1.61 1.61 1.61h13.41c3.8 0 5.37-1.61 5.37-5.37s-1.62-5.37-5.37-5.37h-16.1c-3.86 0-5.37 1.61-5.37 5.37v7.52zm30.06 0c0 3.76 1.58 5.37 5.37 5.37h18.04c.97 0 1.61-.62 1.61-1.62 0-.96-.56-1.6-1.59-1.6h-18.06c-1.61-.03-2.15-.58-2.15-2.15v-7.52c0-1.57.54-2.12 2.15-2.15h18.02c.97 0 1.61-.62 1.61-1.61 0-.96-.62-1.61-1.59-1.61h-18.04c-3.79 0-5.37 1.61-5.37 5.37v7.52zm28.57-.03c0 3.76 1.58 5.39 5.37 5.39h16.1c3.79 0 5.37-1.63 5.37-5.39v-7.51c0-3.76-1.58-5.34-5.37-5.34h-16.1c-3.79 0-5.37 1.59-5.37 5.34v7.51zm5.37 2.17c-1.61-.02-2.15-.6-2.15-2.17v-7.51c0-1.57.54-2.1 2.15-2.12h16.1c1.61.02 2.15.58 2.15 2.15v7.49c0 1.57-.54 2.15-2.15 2.18l-16.1-.02zm-87.63-13.42c-.01-.99-.57-1.61-1.62-1.61h-6.98c-3.75 0-5.37 1.6-5.37 5.37v7.52c0 1.48-.66 2.15-2.19 2.15h-9.14c-.97 0-1.55.62-1.55 1.62 0 .96.58 1.6 1.55 1.6h9.14c3.73 0 5.41-1.61 5.41-5.37v-7.52c0-1.6.58-2.15 2.15-2.15h6.98c1.06.01 1.62-.62 1.62-1.61z"/></svg>