<?xml version="1.0" encoding="UTF-8"?>
<svg id="Layer_2" data-name="Layer 2" xmlns="http://www.w3.org/2000/svg" viewBox="0 0 524.52 126.75">
  <defs>
    <style>
      .cls-1 {
        fill: #50c4c9;
      }
    </style>
  </defs>
  <g id="Vrstva_1" data-name="Vrstva 1">
    <g>
      <path class="cls-1" d="M208.09,84.33c-2.03,1.69-4.39,2.54-7.1,2.54h-55.77c1.35,6.65,4.45,11.86,9.29,15.63,4.84,3.78,10.31,5.66,16.39,5.66,4.62,0,8.22-.42,10.82-1.27,2.59-.85,4.65-1.75,6.17-2.7,1.52-.96,2.56-1.61,3.13-1.94,2.03-1.01,3.94-1.52,5.75-1.52,2.37,0,4.39.85,6.08,2.54,1.69,1.69,2.53,3.66,2.53,5.92,0,3.04-1.58,5.8-4.73,8.28-3.16,2.59-7.38,4.79-12.67,6.59-5.3,1.8-10.65,2.7-16.06,2.7-9.46,0-17.72-1.97-24.76-5.92-7.04-3.94-12.48-9.38-16.31-16.31-3.83-6.93-5.75-14.73-5.75-23.41,0-9.69,2.03-18.19,6.08-25.52,4.05-7.32,9.41-12.93,16.05-16.82,6.65-3.89,13.75-5.83,21.29-5.83s14.45,2.03,21.04,6.08c6.59,4.06,11.86,9.52,15.8,16.39,3.94,6.87,5.91,14.31,5.91,22.31-.11,2.7-1.18,4.9-3.21,6.59M145.39,69.97h44.28v-1.18c-.45-4.73-2.76-8.79-6.93-12.17-4.17-3.38-8.9-5.07-14.2-5.07-13.07,0-20.79,6.14-23.15,18.42"/>
      <path class="cls-1" d="M249.74,122.1c-1.97,1.97-4.42,2.96-7.35,2.96s-5.18-.99-7.1-2.96c-1.92-1.97-2.87-4.42-2.87-7.35V10.31c0-2.93.99-5.38,2.96-7.35,1.97-1.97,4.42-2.96,7.35-2.96s5.18.99,7.1,2.96c1.91,1.97,2.87,4.42,2.87,7.35v104.44c0,2.93-.99,5.38-2.96,7.35"/>
      <path class="cls-1" d="M296.27,122.1c-1.92,1.97-4.34,2.96-7.27,2.96s-5.35-.99-7.27-2.96c-1.92-1.97-2.87-4.42-2.87-7.35V44.95c0-2.93.96-5.38,2.87-7.35,1.91-1.97,4.34-2.96,7.27-2.96s5.35.99,7.27,2.96c1.91,1.97,2.87,4.42,2.87,7.35v69.8c0,2.93-.96,5.38-2.87,7.35"/>
      <path class="cls-1" d="M405.2,104.19c-4.06,7.16-9.61,12.7-16.65,16.65-7.04,3.95-14.79,5.91-23.24,5.91s-16.34-1.97-23.32-5.91c-6.99-3.94-12.51-9.49-16.56-16.65-4.06-7.15-6.08-15.24-6.08-24.25s2.03-17.1,6.08-24.25c4.05-7.15,9.58-12.73,16.56-16.73,6.99-4,14.76-6,23.32-6s16.2,2,23.24,6c7.04,4,12.59,9.58,16.65,16.73,4.06,7.16,6.08,15.24,6.08,24.25s-2.03,17.1-6.08,24.25M387.54,65.15c-2.31-4.34-5.41-7.69-9.29-10.05-3.89-2.37-8.2-3.55-12.93-3.55s-9.04,1.18-12.93,3.55c-3.89,2.37-6.99,5.72-9.3,10.05-2.31,4.34-3.46,9.27-3.46,14.79s1.15,10.42,3.46,14.7c2.31,4.28,5.41,7.61,9.3,9.97,3.89,2.37,8.2,3.55,12.93,3.55s9.04-1.18,12.93-3.55c3.89-2.36,6.98-5.69,9.29-9.97,2.31-4.28,3.47-9.18,3.47-14.7s-1.16-10.45-3.47-14.79"/>
      <path class="cls-1" d="M425.28,105.96c0-2.93,1.46-5.41,4.4-7.44,1.58-1.01,3.21-1.52,4.9-1.52,2.37,0,4.62,1.07,6.76,3.21,3.38,3.49,6.9,6.08,10.56,7.77,3.66,1.69,8.08,2.53,13.27,2.53,8.79-.34,13.18-3.66,13.18-9.97,0-3.27-1.49-5.75-4.48-7.44-2.99-1.69-7.63-3.38-13.94-5.07-6.54-1.8-11.86-3.6-15.97-5.41-4.11-1.8-7.66-4.53-10.65-8.2-2.99-3.66-4.48-8.59-4.48-14.79,0-5.41,1.55-10.11,4.65-14.11,3.1-4,7.15-7.1,12.17-9.3,5.01-2.2,10.34-3.3,15.97-3.3s11.49,1.07,17.24,3.21c5.75,2.14,10.25,5.3,13.52,9.46,1.46,1.8,2.2,3.83,2.2,6.08,0,2.59-1.07,4.73-3.21,6.42-1.58,1.24-3.38,1.86-5.41,1.86-2.48,0-4.51-.79-6.09-2.37-2.03-2.48-4.65-4.45-7.86-5.91-3.21-1.46-6.84-2.2-10.9-2.2-8.56,0-12.84,3.1-12.84,9.3,0,2.48.79,4.48,2.37,6,1.58,1.52,3.58,2.7,6,3.55,2.42.85,5.83,1.89,10.22,3.13,6.08,1.69,11.16,3.44,15.21,5.24,4.06,1.8,7.49,4.56,10.31,8.28,2.81,3.72,4.22,8.62,4.22,14.7,0,5.52-1.63,10.34-4.9,14.45-3.27,4.11-7.46,7.24-12.59,9.38-5.13,2.14-10.39,3.21-15.8,3.21-7.43,0-14.37-1.24-20.79-3.72s-11.66-6.48-15.72-12c-1.01-1.35-1.52-3.04-1.52-5.07"/>
      <path class="cls-1" d="M299.68,10.68c0,5.9-4.78,10.68-10.68,10.68s-10.68-4.78-10.68-10.68S283.1,0,289,0s10.68,4.78,10.68,10.68"/>
      <path class="cls-1" d="M91.31,125.06c-5.74,0-10.4-4.66-10.4-10.4V14.08c0-5.74,4.66-10.4,10.4-10.4s10.4,4.66,10.4,10.4v100.58c0,5.74-4.66,10.4-10.4,10.4"/>
      <path class="cls-1" d="M0,71.07v43.59c0,5.74,4.66,10.4,10.4,10.4h0c5.74,0,10.4-4.66,10.4-10.4v-30.69l48.1-12.88c1.75-.47,2.97-2.05,2.97-3.86v-13.25c0-2.63-2.49-4.54-5.03-3.86L2.97,67.21c-1.75.47-2.97,2.05-2.97,3.86Z"/>
      <path class="cls-1" d="M10.4,3.68h0C4.66,3.68,0,8.34,0,14.08v39.34c0,2.63,2.49,4.54,5.03,3.86l12.8-3.43c1.75-.47,2.97-2.05,2.97-3.86V14.08c0-5.74-4.66-10.4-10.4-10.4Z"/>
      <path class="cls-1" d="M517.98,4.27c2.01,1.14,3.61,2.7,4.78,4.69,1.17,2,1.76,4.24,1.76,6.75s-.59,4.75-1.76,6.75-2.77,3.56-4.78,4.69c-2.02,1.14-4.22,1.7-6.6,1.7s-4.59-.57-6.6-1.7c-2.02-1.13-3.61-2.7-4.78-4.69-1.17-2-1.76-4.24-1.76-6.75s.59-4.75,1.76-6.75c1.17-2,2.77-3.56,4.78-4.69,2.01-1.13,4.21-1.7,6.6-1.7s4.59.57,6.6,1.7ZM516.87,25.25c1.62-.92,2.89-2.21,3.81-3.87.92-1.66,1.38-3.55,1.38-5.66s-.46-4.05-1.38-5.69c-.92-1.64-2.19-2.92-3.81-3.84-1.62-.92-3.45-1.38-5.49-1.38s-3.87.46-5.52,1.38c-1.64.92-2.93,2.21-3.87,3.87-.94,1.66-1.41,3.55-1.41,5.66s.47,4,1.41,5.66c.94,1.66,2.23,2.95,3.87,3.87,1.64.92,3.48,1.38,5.52,1.38s3.86-.46,5.49-1.38Z"/>
      <path class="cls-1" d="M506.61,21.31v-10.77c0-.95.77-1.73,1.73-1.73h4.23c1.27,0,2.34.43,3.2,1.28.86.85,1.3,1.9,1.32,3.15,0,.8-.22,1.57-.65,2.3-.43.73-1.06,1.3-1.88,1.69l1.76,3.55c.38.77-.18,1.67-1.04,1.67h0c-.44,0-.84-.25-1.04-.65l-2.03-4.13h-3.31v3.64c0,.63-.51,1.14-1.14,1.14h0c-.63,0-1.14-.51-1.14-1.14ZM508.89,15.53h3.67c.59,0,1.09-.22,1.52-.66s.65-.98.65-1.63c0-.68-.22-1.23-.66-1.64-.44-.41-.94-.62-1.51-.62h-3.67v4.55Z"/>
    </g>
  </g>
</svg>