<svg xmlns="http://www.w3.org/2000/svg" width="166" height="38" viewBox="0 0 166 38"><g fill="#1D2126"><path d="M77.308 1.611c-.006-.993-.569-1.608-1.614-1.608h-6.978c-3.751 0-5.371 1.604-5.371 5.369v7.516c0 1.484-.663 2.148-2.189 2.148h-9.082c-.97 0-1.611.625-1.611 1.622 0 .961.618 1.597 1.589 1.597h9.104c3.735 0 5.411-1.607 5.411-5.367v-7.516c0-1.599.579-2.146 2.149-2.146h6.978c1.046.001 1.608-.63 1.614-1.615M21.472 0l-16.105.003c-3.22 0-5.367 2.147-5.367 5.369v7.516c0 3.223 2.147 5.367 5.367 5.363h12.884c1.074.003 2.146-1.068 2.146-2.14l-.002-3.759c.002-.93-.689-1.609-1.575-1.609-1.001 0-1.643.63-1.643 1.609v2.683h-11.81c-1.074 0-2.147-1.074-2.147-2.147v-7.516c0-1.074 1.074-2.146 2.147-2.149l16.105.004c1.076 0 2.149 1.072 2.149 2.146v11.275c0 .847.645 1.607 1.61 1.607.913 0 1.609-.512 1.609-1.607v-11.276c.001-3.222-2.145-5.369-5.368-5.372"/><path d="M80.526 12.888c0 3.759 1.577 5.367 5.369 5.367h19.859c.972 0 1.612-.625 1.612-1.619 0-.961-.618-1.601-1.593-1.601h-19.877c-1.612-.025-2.149-.576-2.149-2.147v-7.516c0-1.606.584-2.146 2.149-2.146h16.104c1.516 0 2.147.562 2.147 2.146 0 1.609-.562 2.146-2.147 2.146h-13.408c-1.081 0-1.611.543-1.611 1.612 0 1.031.547 1.613 1.611 1.613h13.407c3.803 0 5.368-1.613 5.368-5.371s-1.616-5.369-5.368-5.369h-16.103c-3.859 0-5.369 1.609-5.369 5.369v7.516zM110.589 12.888c0 3.759 1.578 5.367 5.369 5.367h18.043c.971 0 1.612-.625 1.612-1.619 0-.961-.561-1.601-1.592-1.601h-18.063c-1.61-.025-2.15-.576-2.15-2.147v-7.516c0-1.569.54-2.124 2.15-2.146h18.021c.972 0 1.613-.619 1.613-1.612 0-.965-.621-1.611-1.593-1.611h-18.042c-3.791 0-5.369 1.608-5.369 5.369v7.516zM139.161 12.86c0 3.761 1.58 5.395 5.366 5.395h16.104c3.79 0 5.368-1.634 5.368-5.395v-7.514c0-3.757-1.578-5.343-5.368-5.343h-16.104c-3.786 0-5.366 1.585-5.366 5.343v7.514zm5.366 2.172c-1.609-.022-2.147-.604-2.147-2.171v-7.515c0-1.569.538-2.098 2.147-2.12h16.104c1.609.022 2.148.576 2.148 2.146v7.488c0 1.567-.539 2.149-2.148 2.175l-16.104-.003zM56.903 1.611c-.006-.993-.569-1.608-1.615-1.608h-6.978c-3.751 0-5.371 1.604-5.371 5.369v7.516c0 1.484-.661 2.148-2.188 2.148h-9.144c-.968 0-1.55.625-1.55 1.622 0 .961.582 1.597 1.55 1.597h9.144c3.733 0 5.411-1.607 5.411-5.367v-7.516c0-1.599.579-2.146 2.147-2.146h6.979c1.049.001 1.609-.63 1.615-1.615"/></g><g fill="#00A4E0"><path d="M39.31 28.674h2.616c1.729 0 2.808.939 2.808 2.312 0 .852-.444 1.55-1.117 1.919.876.368 1.41 1.092 1.41 2.045 0 1.588-1.296 2.616-2.884 2.616h-2.833v-8.892zm2.668 3.722c.762 0 1.308-.508 1.308-1.271 0-.749-.508-1.22-1.321-1.22h-1.245v2.49h1.258zm.024 3.95c.89 0 1.563-.47 1.563-1.396 0-.953-.686-1.397-1.563-1.397h-1.283v2.794h1.283zM47.906 28.674h1.41v7.621h3.112v1.271h-4.522v-8.892zM54.865 34.301v-5.627h1.41v5.614c0 1.309.711 2.134 2.032 2.134 1.309 0 2.032-.838 2.032-2.146v-5.603h1.397v5.614c0 2.02-1.271 3.442-3.43 3.442-2.221.001-3.441-1.371-3.441-3.428zM65.063 28.674h4.396v1.271h-2.985v2.477h2.591v1.258h-2.591v2.616h3.112v1.271h-4.522v-8.893zM80.1 29.894l-.889.927c-.344-.344-1.118-1.003-2.452-1.003-1.893 0-3.125 1.423-3.125 3.289 0 1.982 1.334 3.315 3.125 3.315 1.359 0 2.134-.559 2.362-.8v-1.498h-1.828v-1.207h3.162v3.391c-.952.89-2.083 1.423-3.772 1.423-2.528 0-4.522-1.854-4.522-4.61 0-2.58 1.893-4.611 4.548-4.611 1.879-.001 2.934.876 3.391 1.384zM85.125 34.974l-.927 2.592h-1.422l3.238-8.892h1.461l3.24 8.892h-1.423l-.915-2.592h-3.252zm1.627-4.776l-1.232 3.594h2.465l-1.233-3.594zM93.912 35.165c.241.635.764 1.257 1.741 1.257.801 0 1.334-.444 1.334-1.193 0-1.88-4.002-1.461-4.002-4.32 0-1.383 1.029-2.399 2.668-2.399 1.688 0 2.414 1.193 2.629 1.816l-1.168.521c-.204-.433-.61-1.042-1.486-1.042-.788 0-1.232.483-1.232 1.094 0 1.753 4.027 1.435 4.027 4.229 0 1.485-1.081 2.604-2.834 2.604-1.815 0-2.604-1.22-2.87-2.007l1.193-.56zM102.891 29.944h-2.236v-1.271h5.882v1.271h-2.234v7.621h-1.411v-7.621zM109.328 28.674h2.389c1.905 0 2.972 1.13 2.972 2.616 0 1.029-.547 1.919-1.447 2.287l2.159 3.988h-1.563l-1.866-3.671h-1.231v3.671h-1.411v-8.891zm2.362 4.014c.89 0 1.537-.495 1.537-1.397 0-.824-.508-1.385-1.537-1.385h-.951v2.782h.951zM122.117 28.509c2.654 0 4.573 2.021 4.573 4.611 0 2.615-1.919 4.61-4.586 4.61-2.655 0-4.573-1.981-4.573-4.61 0-2.604 1.932-4.611 4.586-4.611zm0 7.9c1.777 0 3.112-1.384 3.112-3.289 0-1.88-1.335-3.29-3.112-3.29-1.791 0-3.112 1.41-3.112 3.29 0 1.905 1.321 3.289 3.112 3.289z"/></g></svg>